<svg width="100" height="100" viewBox="0 0 100 100" fill="none" xmlns="http://www.w3.org/2000/svg">
<path d="M76.8137 88.8795H89.0233V49.7546C89.0233 28.48 71.0011 10.6297 49.5217 10.6297C46.6631 10.6297 43.8525 10.9351 41.1276 11.5148C23.377 15.2914 10.6296 30.7074 10.6296 49.1507C10.6296 58.1718 12.6412 66.7116 18.1679 73.5563C22.831 79.3314 29.0251 83.8997 36.014 86.5323C40.2283 88.0511 44.7773 88.8795 49.5217 88.8795C58.1412 88.8795 66.1159 86.1451 72.6097 81.5043C74.0915 80.4454 75.4961 79.2873 76.8137 78.0397V88.8795Z" fill="white"/>
<path d="M20.555 77.5142C5.53472 62.494 5.53472 38.1413 20.555 23.121C35.5752 8.10079 59.9279 8.10079 74.9482 23.121L20.555 77.5142Z" fill="black" fill-opacity="0.2"/>
<path d="M49.8265 89.0234C28.1787 89.0234 10.6296 71.4743 10.6296 49.8265C10.6296 28.1787 28.1787 10.6297 49.8265 10.6297C60.9698 10.6297 71.027 15.2796 78.1636 22.745L68.7123 30.8367C63.8793 26.0049 57.2862 22.745 49.8265 22.745C34.3259 22.745 22.745 34.5041 22.3887 49.8265C22.0324 65.1489 35.9294 77.0861 49.8265 77.0861C59.3695 77.0861 68.6605 70.365 73.5456 61.9419H49.8265V49.8265H89.0233V89.0234H76.908V78.1636C69.8705 84.8912 60.331 89.0234 49.8265 89.0234Z" fill="black"/>
</svg>
